<?xml version="1.0" encoding="utf-8"?>
<!-- Generator: Adobe Illustrator 15.1.0, SVG Export Plug-In . SVG Version: 6.00 Build 0)  -->
<!DOCTYPE svg PUBLIC "-//W3C//DTD SVG 1.1//EN" "http://www.w3.org/Graphics/SVG/1.1/DTD/svg11.dtd">
<svg version="1.1" id="Layer_1" xmlns="http://www.w3.org/2000/svg" xmlns:xlink="http://www.w3.org/1999/xlink" x="0px" y="0px"
	 width="505px" height="120px" viewBox="0 0 505 120" enable-background="new 0 0 505 120" xml:space="preserve">
<g>
	<g>
		<path fill="#111113" d="M157.741,49.957l-9.59,24.759h-7.62l-9.591-24.759h9.394l3.283,11.264
			c0.362,1.215,0.625,2.428,0.625,3.678h0.196c0-1.25,0.263-2.463,0.625-3.678l3.283-11.264H157.741z"/>
		<path fill="#111113" d="M168.862,51.895c0,2.857-2.234,4.105-4.663,4.105c-2.432,0-4.665-1.248-4.665-4.105
			c0-2.527,2.003-4.071,4.665-4.071C166.859,47.823,168.862,49.365,168.862,51.895z M159.962,57.28h8.474v17.436h-8.474V57.28z"/>
		<path fill="#111113" d="M180.339,60.071h0.197c1.642-1.904,2.89-3.186,5.616-3.186c4.336,0,6.044,3.251,6.044,7.092v10.738h-8.474
			V66.21c0-1.019,0-2.464-1.444-2.464c-1.413,0-1.413,1.445-1.413,2.464v8.505h-8.475V57.28h8.277L180.339,60.071z"/>
		<path fill="#111113" d="M203.406,67.425c0,1.414,0.23,2.989,2.004,2.989c0.887,0,1.544-0.625,1.708-1.445h8.245
			c-1.116,4.203-5.813,6.141-9.821,6.141c-5.485,0-10.511-2.823-10.511-8.832c0-5.78,4.466-9.393,10.018-9.393
			c6.207,0,11.102,4.006,10.675,10.54H203.406L203.406,67.425z M207.381,63.812c0-1.184-0.854-2.266-2.068-2.266
			c-1.281,0-1.906,1.051-1.906,2.266H207.381z"/>
		<path fill="#111113" d="M224.564,57.28l1.938,6.83l0.492,2.66h0.229l0.427-2.66l1.938-6.83h8.9L227.32,81.909h-8.934l4.5-8.933
			l-7.457-15.695L224.564,57.28L224.564,57.28z"/>
		<path fill="#111113" d="M251.246,72.417h-0.197c-1.545,1.642-2.924,2.692-5.322,2.692c-4.729,0-7.357-4.795-7.357-9.028
			c0-4.401,2.661-9.195,7.588-9.195c2.102,0,3.842,0.755,5.09,2.464h0.197l-0.262-2.069h8.31v17.436h-8.31L251.246,72.417z
			 M248.979,68.477c1.61,0,2.268-1.281,2.268-2.627c0-1.347-0.92-2.33-2.268-2.33s-2.2,1.116-2.2,2.396
			C246.778,67.297,247.436,68.477,248.979,68.477z"/>
		<path fill="#111113" d="M277.379,65.489c-0.888-0.525-1.51-0.953-2.595-0.953c-2.2,0-3.317,1.312-3.317,3.479v6.698h-8.475V57.28
			h8.475l-0.195,2.331h0.195c1.514-2.299,3.055-2.791,5.912-2.726V65.489L277.379,65.489z"/>
		<path fill="#111113" d="M292.188,72.122h-0.197c-1.411,1.772-3.415,2.987-5.682,2.987c-4.729,0-7.228-4.795-7.228-8.965
			c0-4.336,2.333-9.26,7.26-9.26c1.972,0,4.073,1.116,5.257,2.726h0.293l-0.394-4.17v-7.355h8.474v26.63h-7.947L292.188,72.122z
			 M287.427,65.98c0,1.312,0.753,2.496,2.166,2.496c1.313,0,2.2-1.379,2.2-2.562c0-1.214-0.918-2.396-2.2-2.396
			C288.18,63.52,287.427,64.7,287.427,65.98z"/>
		<path fill="#111113" d="M319.505,63.716c-1.183-1.346-2.628-2.069-4.401-2.069c-2.89,0-5.125,2.562-5.125,5.386
			c0,3.153,2.203,5.45,5.321,5.45c1.707,0,3.087-0.787,4.205-2.033v3.775c-1.347,0.723-2.694,1.019-4.237,1.019
			c-4.533,0-8.244-3.481-8.244-8.078c0-4.763,3.678-8.275,8.408-8.275c1.379,0,2.889,0.329,4.073,1.018V63.716L319.505,63.716z"/>
		<path fill="#111113" d="M325.346,46.214v15.203h0.066c0.921-1.642,2.759-2.528,4.633-2.528c4.334,0,5.451,2.921,5.451,6.666v9.161
			h-2.957v-8.802c0-2.626-0.361-4.398-3.381-4.398c-3.811,0-3.811,3.35-3.811,6.141v7.06h-2.957V46.214H325.346z"/>
		<path fill="#111113" d="M341.659,59.35v8.505c0,2.463,0.625,4.629,3.548,4.629s3.548-2.166,3.548-4.629V59.35h2.956v8.832
			c0,4.202-1.972,7.062-6.504,7.062s-6.503-2.858-6.503-7.062V59.35H341.659z"/>
		<path fill="#111113" d="M358.1,61.844h0.098c0.724-1.805,2.232-2.954,4.203-2.954c0.854,0,1.709,0.296,2.43,0.756l-1.346,2.693
			c-0.526-0.461-1.116-0.625-1.807-0.625c-3.188,0-3.58,2.955-3.58,5.451v7.553h-2.955V59.35h2.955v2.494H358.1z"/>
		<path fill="#111113" d="M376.841,63.716c-1.184-1.346-2.629-2.069-4.401-2.069c-2.891,0-5.125,2.562-5.125,5.386
			c0,3.153,2.203,5.45,5.322,5.45c1.706,0,3.086-0.787,4.204-2.033v3.775c-1.349,0.723-2.694,1.019-4.239,1.019
			c-4.531,0-8.242-3.481-8.242-8.078c0-4.763,3.678-8.275,8.406-8.275c1.381,0,2.892,0.329,4.075,1.018V63.716L376.841,63.716z"/>
		<path fill="#111113" d="M382.682,46.214v15.203h0.063c0.921-1.642,2.759-2.528,4.634-2.528c4.334,0,5.451,2.921,5.451,6.666v9.161
			h-2.956v-8.802c0-2.626-0.36-4.398-3.383-4.398c-3.812,0-3.812,3.35-3.812,6.141v7.06h-2.955V46.214H382.682z"/>
		<path fill="#111113" d="M403.202,61.911h0.065c1.216-1.84,3.057-3.021,5.354-3.021c4.435,0,7.226,3.84,7.226,8.045
			c0,4.399-2.627,8.308-7.356,8.308c-2.166,0-4.04-1.183-5.222-2.923h-0.065V83.52h-2.958V59.35h2.958L403.202,61.911
			L403.202,61.911z M412.893,67.031c0-2.987-1.806-5.518-4.992-5.518c-3.056,0-4.86,2.66-4.86,5.518c0,2.891,1.739,5.583,4.86,5.583
			C411.118,72.614,412.893,70.055,412.893,67.031z"/>
		<path fill="#111113" d="M421.385,74.716h-2.958V46.214h2.958V74.716z"/>
		<path fill="#111113" d="M439.537,74.716h-2.957V72.32h-0.067c-1.181,1.74-3.021,2.92-5.221,2.92c-4.699,0-7.357-3.907-7.357-8.307
			c0-4.203,2.79-8.044,7.258-8.044c2.266,0,4.104,1.181,5.319,3.021h0.066v-2.562h2.956v15.368H439.537z M436.744,67.031
			c0-2.987-1.805-5.518-4.99-5.518c-3.056,0-4.863,2.66-4.863,5.518c0,2.891,1.742,5.583,4.863,5.583
			C434.971,72.614,436.744,70.055,436.744,67.031z"/>
		<path fill="#111113" d="M445.82,61.417h0.066c0.919-1.642,2.76-2.528,4.631-2.528c4.335,0,5.453,2.921,5.453,6.666v9.161h-2.957
			v-8.802c0-2.626-0.361-4.398-3.383-4.398c-3.81,0-3.81,3.35-3.81,6.141v7.06h-2.956V59.35h2.956L445.82,61.417L445.82,61.417z"/>
		<path fill="#111113" d="M462.66,74.716h-2.956v-12.61h-1.61V59.35h1.61v-5.879h2.956v5.879h2.889v2.757h-2.889V74.716z"/>
		<path fill="#111113" d="M470.704,52.322c0,1.115-0.92,2.002-2.036,2.002c-1.118,0-2.036-0.887-2.036-2.002
			c0-1.15,0.918-2.07,2.036-2.07C469.783,50.252,470.704,51.172,470.704,52.322z M470.147,74.716h-2.958V59.35h2.958V74.716z"/>
		<path fill="#111113" d="M476.833,61.417h0.066c0.919-1.642,2.758-2.528,4.632-2.528c4.335,0,5.453,2.921,5.453,6.666v9.161h-2.958
			v-8.802c0-2.626-0.36-4.398-3.383-4.398c-3.812,0-3.812,3.35-3.812,6.141v7.06h-2.953V59.35h2.953L476.833,61.417L476.833,61.417z
			"/>
		<path fill="#111113" d="M505,74.419c0,5.287-1.511,9.097-7.488,9.097c-4.271,0-7.358-2.627-7.424-6.961h2.958
			c0,2.758,1.904,4.334,4.597,4.334c3.646,0,4.403-2.494,4.403-5.648v-2.92h-0.067c-1.183,1.74-3.054,2.92-5.223,2.92
			c-4.729,0-7.356-3.907-7.356-8.307c0-4.203,2.792-8.044,7.227-8.044c2.3,0,4.14,1.181,5.354,3.085h0.067v-2.626H505V74.419
			L505,74.419z M502.211,67.031c0-2.987-1.808-5.518-4.994-5.518c-3.056,0-4.861,2.66-4.861,5.518c0,2.891,1.74,5.583,4.861,5.583
			C500.438,72.614,502.211,70.055,502.211,67.031z"/>
	</g>
	<g>
		<path fill="#1A4256" d="M88.25,32.179c0.239,0.241,0.479,0.38,0.72,0.419c0.241,0.039,0.464-0.044,0.667-0.248
			c0.174-0.172,0.26-0.374,0.264-0.608c0-0.232-0.168-0.52-0.506-0.861l-1.52-1.533l-1.223,1.218L88.25,32.179z"/>
		<polygon fill="#1A4256" points="79.424,26.796 79.646,23.703 77.122,25.478 		"/>
		<path fill="#1A4256" d="M27.833,84.036c0.207,0.075,0.416,0.042,0.633-0.103c0.183-0.125,0.295-0.289,0.337-0.492
			c0.04-0.207-0.058-0.487-0.299-0.844l-1.072-1.604l-1.289,0.862l1.129,1.688C27.442,83.802,27.63,83.964,27.833,84.036z"/>
		<path fill="#1A4256" d="M91.919,41.196c0.407,0.725,0.824,1.173,1.256,1.35c0.434,0.172,0.971,0.079,1.611-0.279
			c0.644-0.36,1.001-0.768,1.081-1.227c0.079-0.461-0.083-1.053-0.488-1.779l-0.563-1.002l-3.457,1.935L91.919,41.196z"/>
		<path fill="#1A4256" d="M70.668,98.406c-0.069-0.288-0.193-0.479-0.372-0.573c-0.183-0.095-0.448-0.101-0.8-0.013l-1.431,0.347
			l0.4,1.646l1.32-0.319c0.39-0.095,0.651-0.226,0.79-0.392C70.71,98.934,70.743,98.703,70.668,98.406z"/>
		<path fill="#1A4256" d="M63.767,7.564c1.969-5.883-6.748-5.342-10.278-4.168c-0.449,1.39-0.243,3.004,0,4.445
			C56.032,6.085,61.35,7.63,63.767,7.564z M54.6,5.896c-0.124-3.517,6.714-2.986,7.777-0.833C60.77,6.327,56.663,5.091,54.6,5.896z"
			/>
		<path fill="#1A4256" d="M54.323,9.787c2.784,0.269,6.918-0.805,7.777,1.388c-1.389,0.334-5.819-0.62-7.222,0.556
			c2.127-0.272,4.927,0.186,6.387,1.389c-1.53,0.327-4.888,0.29-5.276,0.833c2.073-0.035,3.79,0.284,5,1.11
			c-1.917,0.028-4.076-0.186-5.277,0.556c1.026,0.179,2.123,0.286,2.777,0.833c-0.999,0.389-2.491,0.286-3.333,0.834
			c1.588,0.17,2.912,0.606,4.167,1.109c-0.875,0.606-2.721,0.241-3.056,1.389c1.356,0.125,2.562,0.402,3.61,0.833
			c-1.168,0.59-2.733,0.786-3.888,1.388c1.485,0.182,3.697-0.364,4.721,0.277c-1.827,0.303-3.267,0.994-4.721,1.667
			c1.163,0.413,2.722,0.427,3.61,1.112c-1.141,0.342-2.492,0.472-3.333,1.112c1.505,0.16,2.806,0.525,3.888,1.111
			c-1.003,0.476-2.428,0.531-3.332,1.109c1.494,0.082,2.857,0.293,3.888,0.834c-1.176,0.491-3.089,0.242-3.888,1.111
			c1.283,0.197,2.4,0.559,3.332,1.112c-0.927,0.46-2.734,0.042-3.332,0.833c0.904,0.025,1.71,0.143,2.222,0.556
			c-0.766,0.436-2.395,0.012-2.778,0.833c1.413,0.162,2.716,0.431,3.888,0.832c-0.24,2.21-3.701,0.164-4.722,0.835
			c1.367,1.133,4.863,1.667,6.389,0.277c0.948-8.495,2.31-16.583,2.778-25.556C62.436,9.111,56.515,7.993,54.323,9.787z"/>
		<path fill="#1A4256" d="M65.99,4.507c-0.372,0.043-0.838-1.129-1.113-0.279c0.451,0.755,0.36,2.052,0.556,3.056
			C65.767,7.603,65.939,5.4,65.99,4.507z"/>
		<path fill="#1A4256" d="M112.052,67.688l7.431-4.354l-6.933-4.848l6.56-5.58l-7.668-3.57l5.492-6.634l-8.171-2.184l4.254-7.487
			l-8.428-0.73l2.894-8.112l-8.427,0.747l1.44-8.492l-8.171,2.198l-0.057-8.612l-7.664,3.584L83.05,5.14l-6.925,4.861l-2.999-8.075
			l-4.884,4.896c0.137-1.459,0.647-2.544,0.524-4.262c-5.369-2.5-13.609-4.258-20.307,0.082c-0.203,2.52,0.592,3.435,0.587,5.754
			l0.044,0.266l-6.799-5.651l-2.195,8.171l-7.477-4.27l-0.745,8.428l-8.108-2.902l0.732,8.429l-8.487-1.452l2.185,8.172
			l-8.612,0.044l3.569,7.669l-8.47,1.54l4.848,6.934l-8.077,2.99l5.979,5.987L0,57.095l6.926,4.854l-6.564,5.574l7.665,3.58
			l-5.5,6.625l8.17,2.189L6.433,87.4l8.428,0.738l-2.901,8.112l8.43-0.737l-1.449,8.489l8.17-2.188l0.048,8.613l7.667-3.578
			l1.545,8.475l6.928-4.854l2.993,8.075l5.979-5.983L56.622,120l4.852-6.932l5.574,6.565l3.576-7.669l6.627,5.497l2.188-8.175
			l7.483,4.264l0.734-8.431l8.109,2.897l-0.739-8.431l8.489,1.445l-2.196-8.175l8.611-0.053l-3.579-7.666l8.471-1.551l-4.855-6.928
			l8.072-2.995L112.052,67.688z M67.266,17.198l3.297,0.977l-0.055,0.186c-0.063-0.019-0.139-0.032-0.23-0.044
			c-0.09-0.009-0.15,0.027-0.174,0.108c-0.014,0.051,0.005,0.16,0.061,0.327s0.127,0.366,0.212,0.606
			c0.085,0.234,0.183,0.489,0.292,0.761c0.107,0.271,0.207,0.532,0.3,0.781c0.067-0.069,0.2-0.184,0.403-0.348
			c0.205-0.162,0.419-0.331,0.643-0.509c0.227-0.176,0.427-0.342,0.604-0.488c0.177-0.146,0.272-0.245,0.288-0.299
			c0.024-0.081-0.001-0.141-0.079-0.182c-0.079-0.041-0.142-0.066-0.195-0.082l0.055-0.186l3.033,0.903l-0.055,0.184
			c-0.051-0.016-0.126-0.027-0.223-0.032c-0.098-0.008-0.177,0.014-0.237,0.062l-3.777,3.128l-0.605,2.037
			c-0.033,0.113-0.021,0.195,0.043,0.247c0.062,0.054,0.129,0.095,0.196,0.127l-0.055,0.184l-2.695-0.801l0.054-0.182
			c0.074,0.01,0.151,0.01,0.23,0.001c0.083-0.009,0.14-0.069,0.173-0.183l0.587-1.976l-1.748-4.837
			c-0.024-0.074-0.081-0.134-0.172-0.185c-0.089-0.049-0.167-0.083-0.228-0.101L67.266,17.198z M78.992,21.631l0.096-0.165
			l2.898,1.659l-0.098,0.169c-0.126-0.061-0.211-0.048-0.258,0.034c-0.017,0.028-0.039,0.179-0.065,0.451
			c-0.028,0.272-0.058,0.619-0.088,1.037c-0.029,0.418-0.065,0.88-0.104,1.387c-0.038,0.506-0.076,1.012-0.112,1.518
			c-0.038,0.506-0.078,0.986-0.114,1.436c-0.038,0.451-0.074,0.828-0.11,1.125c-0.008,0.058,0.009,0.115,0.05,0.169
			c0.044,0.055,0.091,0.098,0.148,0.128l-0.097,0.167l-2.302-1.319l0.092-0.168c0.029,0.018,0.069,0.032,0.121,0.052
			c0.053,0.017,0.1-0.009,0.135-0.071c0.021-0.038,0.037-0.104,0.051-0.203c0.012-0.096,0.024-0.203,0.035-0.318
			c0.01-0.116,0.02-0.234,0.028-0.353c0.008-0.12,0.017-0.22,0.024-0.301l-3.216-1.841c-0.058,0.054-0.134,0.115-0.227,0.183
			c-0.095,0.07-0.192,0.137-0.292,0.203c-0.098,0.065-0.189,0.125-0.271,0.186c-0.082,0.056-0.134,0.102-0.154,0.14
			c-0.036,0.064-0.036,0.115,0.005,0.149c0.042,0.034,0.076,0.061,0.103,0.079l-0.094,0.167l-2.081-1.189l0.096-0.167
			c0.055,0.031,0.116,0.052,0.186,0.061c0.069,0.007,0.125-0.006,0.172-0.041c0.648-0.489,1.298-0.969,1.945-1.438
			c0.649-0.471,1.235-0.896,1.755-1.278c0.521-0.384,0.95-0.7,1.292-0.953c0.34-0.251,0.525-0.402,0.551-0.447
			C79.143,21.791,79.107,21.71,78.992,21.631z M87.148,27.075c-0.027-0.075-0.07-0.146-0.124-0.215l0.136-0.135l3.616,3.64
			c0.562,0.566,0.879,1.151,0.947,1.748c0.071,0.602-0.155,1.159-0.676,1.679c-0.41,0.405-0.851,0.606-1.326,0.604
			c-0.472-0.002-0.961-0.117-1.456-0.342l-0.518,2.518c-0.024,0.098-0.021,0.205,0.005,0.322c0.025,0.117,0.08,0.216,0.162,0.299
			l-0.136,0.136l-2.275-2.292l0.139-0.136c0.052,0.053,0.12,0.102,0.203,0.147c0.081,0.046,0.153,0.039,0.213-0.021
			c0.039-0.036,0.094-0.17,0.164-0.4c0.074-0.23,0.146-0.479,0.219-0.756c0.073-0.273,0.141-0.536,0.205-0.789
			c0.065-0.252,0.109-0.413,0.133-0.479l-1.083-1.09l-1.518,1.51c-0.084,0.083-0.108,0.163-0.075,0.242
			c0.033,0.081,0.086,0.164,0.163,0.255l-0.136,0.135l-1.937-1.95l0.136-0.137c0.053,0.038,0.116,0.072,0.193,0.103
			c0.075,0.031,0.154,0.005,0.237-0.079l4.309-4.277C87.153,27.23,87.178,27.154,87.148,27.075z M94.74,35.371l0.167-0.094
			l2.341,4.186c0.291,0.52,0.453,1.008,0.488,1.466c0.036,0.455-0.021,0.882-0.164,1.273c-0.148,0.391-0.376,0.747-0.69,1.062
			c-0.311,0.315-0.673,0.587-1.081,0.815c-0.408,0.23-0.83,0.395-1.262,0.499c-0.431,0.1-0.854,0.109-1.263,0.028
			c-0.412-0.082-0.804-0.257-1.173-0.527c-0.369-0.268-0.701-0.664-0.992-1.183l-2.34-4.186l0.167-0.092
			c0.066,0.096,0.135,0.172,0.201,0.227c0.067,0.055,0.151,0.052,0.25-0.005l5.3-2.965c0.104-0.056,0.148-0.128,0.139-0.212
			C94.819,35.575,94.787,35.478,94.74,35.371z M97.965,56.533c0.028,0.295,0.09,0.571,0.185,0.83
			c0.093,0.258,0.228,0.477,0.398,0.658c0.172,0.18,0.379,0.314,0.625,0.404c0.246,0.091,0.533,0.12,0.865,0.085
			c0.343-0.032,0.631-0.117,0.862-0.257c0.232-0.138,0.416-0.314,0.555-0.529c0.135-0.217,0.229-0.46,0.277-0.732
			c0.049-0.273,0.061-0.568,0.028-0.883c-0.023-0.236-0.062-0.465-0.118-0.69c-0.056-0.224-0.134-0.445-0.232-0.667l-0.929,0.092
			l0.119,1.195c0.012,0.115,0.062,0.183,0.151,0.201c0.086,0.02,0.16,0.027,0.219,0.021l0.018,0.171l-1.771,0.177l-0.019-0.172
			c0.056-0.005,0.13-0.025,0.211-0.062c0.083-0.036,0.117-0.112,0.108-0.227l-0.298-2.96l1.958-0.194
			c0.094-0.012,0.178-0.042,0.25-0.097c0.071-0.056,0.102-0.128,0.094-0.21l-0.014-0.13l0.172-0.018
			c0.137,0.216,0.279,0.467,0.427,0.747c0.149,0.284,0.289,0.59,0.417,0.924c0.13,0.331,0.239,0.674,0.328,1.028
			c0.088,0.355,0.15,0.713,0.185,1.075c0.058,0.551,0.05,1.063-0.018,1.539c-0.068,0.478-0.216,0.893-0.445,1.246
			c-0.23,0.354-0.537,0.644-0.924,0.869c-0.384,0.227-0.858,0.365-1.42,0.422c-0.561,0.057-1.053,0-1.479-0.168
			s-0.786-0.416-1.085-0.741c-0.295-0.325-0.531-0.706-0.705-1.144c-0.172-0.44-0.283-0.898-0.332-1.383
			c-0.036-0.361-0.048-0.693-0.036-0.998c0.015-0.302,0.039-0.57,0.073-0.805c0.033-0.233,0.066-0.427,0.092-0.576
			c0.028-0.153,0.041-0.25,0.037-0.299c-0.008-0.076-0.029-0.123-0.058-0.144c-0.032-0.021-0.067-0.048-0.112-0.084l0.014-0.172
			l1.96,0.55l-0.069,0.182l-0.1,0.01c-0.085,0.01-0.161,0.081-0.224,0.217c-0.062,0.134-0.116,0.301-0.158,0.498
			c-0.043,0.194-0.071,0.402-0.083,0.617C97.945,56.17,97.948,56.361,97.965,56.533z M102.813,65.059
			c-0.005-0.102-0.051-0.158-0.139-0.172c-0.083-0.011-0.255,0.07-0.519,0.249c-0.261,0.177-0.584,0.406-0.968,0.687
			c-0.385,0.277-0.817,0.59-1.295,0.941c-0.476,0.35-0.977,0.689-1.507,1.021l0.024,0.032l3.728,0.509
			c0.102,0.015,0.174-0.013,0.211-0.08c0.039-0.068,0.07-0.151,0.094-0.254l0.17,0.022l-0.33,2.422l-0.172-0.021
			c0.005-0.098-0.005-0.184-0.024-0.257c-0.019-0.074-0.08-0.118-0.182-0.132l-5.405-0.737c-0.105-0.015-0.177,0.017-0.216,0.084
			c-0.039,0.073-0.07,0.159-0.093,0.264l-0.169-0.024l0.458-3.371l0.17,0.021c0,0.071,0.011,0.138,0.03,0.208
			c0.021,0.07,0.081,0.112,0.185,0.125c0.021,0.004,0.128-0.062,0.325-0.193c0.197-0.131,0.443-0.303,0.743-0.514
			c0.299-0.207,0.63-0.441,0.995-0.701c0.362-0.259,0.725-0.518,1.088-0.775l-2.801-0.381c-0.105-0.014-0.176,0.016-0.215,0.086
			c-0.038,0.07-0.071,0.164-0.094,0.275l-0.17-0.025l0.339-2.494l0.17,0.023c-0.006,0.116,0,0.213,0.019,0.291
			c0.02,0.082,0.081,0.127,0.183,0.143l5.406,0.736c0.104,0.015,0.176-0.017,0.214-0.084c0.038-0.073,0.071-0.164,0.095-0.279
			l0.172,0.025l-0.359,2.623l-0.17-0.023C102.815,65.25,102.818,65.16,102.813,65.059z M100.44,74.747l-5.192-1.664
			c-0.103-0.031-0.177-0.015-0.23,0.058c-0.053,0.067-0.104,0.17-0.156,0.303l-0.164-0.053l0.863-2.697l0.163,0.053
			c-0.032,0.139-0.049,0.251-0.048,0.338c0.003,0.085,0.054,0.145,0.155,0.178l5.195,1.661c0.102,0.03,0.177,0.013,0.227-0.055
			c0.055-0.067,0.106-0.169,0.159-0.304l0.163,0.053l-0.861,2.695l-0.165-0.052c0.033-0.14,0.049-0.252,0.046-0.339
			C100.592,74.836,100.54,74.777,100.44,74.747z M97.58,81.242l-3.929-2.023l-0.935,1.817c-0.027,0.05-0.035,0.108-0.028,0.183
			c0.007,0.067,0.07,0.131,0.191,0.195l-0.078,0.15l-1.863-0.961l0.079-0.151c0.119,0.062,0.208,0.075,0.268,0.041
			c0.061-0.035,0.103-0.076,0.129-0.126l2.75-5.344c0.025-0.051,0.033-0.109,0.027-0.18C94.184,74.777,94.12,74.711,94,74.65
			l0.079-0.15l1.863,0.957l-0.079,0.152c-0.12-0.061-0.209-0.075-0.267-0.043c-0.064,0.035-0.104,0.078-0.131,0.129l-0.938,1.815
			l3.931,2.024c0.093,0.05,0.169,0.047,0.228-0.002c0.059-0.053,0.109-0.107,0.152-0.17l0.153,0.076l-1.179,2.293l-0.153-0.078
			c0.028-0.074,0.042-0.147,0.051-0.225C97.718,81.354,97.673,81.29,97.58,81.242z M94.045,86.876
			c-0.068-0.056-0.258-0.074-0.573-0.063c-0.311,0.016-0.707,0.035-1.185,0.071c-0.473,0.033-1.005,0.072-1.595,0.117
			c-0.589,0.046-1.195,0.072-1.819,0.074l0.002,0.041l2.899,2.396c0.083,0.069,0.156,0.082,0.224,0.045
			c0.068-0.035,0.139-0.091,0.212-0.166l0.131,0.108l-1.557,1.884l-0.131-0.109c0.051-0.078,0.089-0.155,0.113-0.228
			c0.024-0.073-0.005-0.146-0.085-0.213l-4.204-3.472c-0.081-0.067-0.157-0.082-0.228-0.041c-0.072,0.041-0.142,0.099-0.218,0.173
			L85.9,87.384l2.169-2.623l0.132,0.109c-0.033,0.057-0.062,0.121-0.083,0.19c-0.021,0.068,0.011,0.14,0.091,0.205
			c0.014,0.012,0.14,0.014,0.377,0.006c0.238-0.01,0.538-0.024,0.902-0.043c0.362-0.022,0.768-0.047,1.214-0.076
			c0.443-0.024,0.89-0.053,1.334-0.082l-2.179-1.801c-0.083-0.069-0.158-0.082-0.228-0.043c-0.071,0.043-0.145,0.104-0.227,0.188
			l-0.132-0.112l1.604-1.938l0.133,0.108c-0.066,0.094-0.112,0.182-0.14,0.258c-0.023,0.076,0.001,0.148,0.085,0.215l4.203,3.474
			c0.082,0.067,0.155,0.082,0.229,0.042c0.07-0.042,0.145-0.102,0.227-0.188l0.131,0.109l-1.685,2.041l-0.134-0.109
			c0.048-0.058,0.098-0.135,0.146-0.222C94.119,87.004,94.109,86.932,94.045,86.876z M87.591,93.753
			c-0.025-0.03-0.074-0.065-0.149-0.112c-0.077-0.043-0.161-0.09-0.252-0.138c-0.094-0.05-0.188-0.097-0.284-0.146
			c-0.095-0.045-0.174-0.084-0.24-0.119l-2.628,2.025c0.028,0.064,0.053,0.15,0.077,0.25c0.025,0.102,0.047,0.205,0.068,0.311
			c0.02,0.104,0.041,0.199,0.06,0.289c0.02,0.086,0.041,0.146,0.065,0.177c0.041,0.054,0.082,0.067,0.127,0.047
			c0.043-0.021,0.078-0.042,0.098-0.058l0.106,0.136l-1.699,1.312l-0.104-0.138c0.046-0.032,0.083-0.08,0.115-0.133
			c0.029-0.054,0.038-0.106,0.025-0.154c-0.184-0.706-0.358-1.411-0.524-2.108c-0.167-0.697-0.318-1.33-0.459-1.894
			c-0.139-0.562-0.255-1.028-0.347-1.399c-0.093-0.368-0.153-0.574-0.184-0.611c-0.052-0.069-0.132-0.069-0.235,0l-0.104-0.141
			l2.365-1.82l0.105,0.137c-0.092,0.082-0.112,0.157-0.061,0.227c0.018,0.023,0.135,0.093,0.353,0.209
			c0.216,0.117,0.492,0.259,0.83,0.43c0.335,0.169,0.705,0.361,1.111,0.564c0.407,0.205,0.813,0.412,1.218,0.617
			c0.406,0.208,0.789,0.406,1.152,0.592c0.36,0.188,0.656,0.348,0.893,0.479c0.044,0.028,0.095,0.032,0.155,0.017
			c0.061-0.017,0.113-0.039,0.157-0.074l0.104,0.135l-1.88,1.449l-0.103-0.139c0.024-0.019,0.05-0.044,0.083-0.082
			C87.635,93.852,87.63,93.805,87.591,93.753z M75.594,100.832l-2.323-4.938c-0.043-0.094-0.106-0.138-0.189-0.135
			c-0.081,0.01-0.17,0.028-0.271,0.066l-0.073-0.156l2.418-1.141l0.075,0.16c-0.091,0.055-0.161,0.108-0.215,0.166
			c-0.052,0.055-0.056,0.131-0.011,0.225l1.883,4l3.544-1.667c0.051-0.026,0.096-0.07,0.127-0.134
			c0.033-0.064,0.02-0.164-0.046-0.307l0.153-0.072l0.911,1.936l-0.154,0.074c-0.066-0.139-0.13-0.208-0.192-0.211
			c-0.064-0.002-0.125,0.011-0.175,0.033l-5.629,2.651l-0.074-0.155c0.09-0.052,0.167-0.108,0.222-0.168
			C75.634,101.004,75.638,100.925,75.594,100.832z M69.169,102.714c0.025,0.103,0.075,0.158,0.151,0.17
			c0.077,0.013,0.151,0.015,0.228,0.003l0.042,0.17l-2.405,0.582l-0.04-0.166c0.027-0.017,0.065-0.046,0.117-0.087
			c0.054-0.043,0.068-0.116,0.042-0.219l-1.286-5.304c-0.025-0.098-0.072-0.155-0.137-0.172c-0.068-0.012-0.117-0.021-0.148-0.022
			l-0.039-0.168l3.657-0.888c0.342-0.082,0.682-0.137,1.016-0.159c0.333-0.021,0.639,0.015,0.916,0.104
			c0.275,0.09,0.518,0.246,0.729,0.465c0.21,0.222,0.367,0.533,0.467,0.944c0.096,0.398,0.101,0.747,0.018,1.043
			c-0.086,0.296-0.233,0.548-0.436,0.755c-0.205,0.207-0.462,0.379-0.763,0.512c-0.311,0.137-0.634,0.246-0.976,0.328l-1.57,0.379
			L69.169,102.714z M70.71,92.575c3.942-10.317,5.123-25.808,5.555-40.562c-2.965-2.223-7.913-2.456-9.998-5.557
			c3.96,1.041,7.125,2.875,10.831,4.167C79.262,66.004,77.047,83.042,70.71,92.575z M91.379,59.805
			C91.368,59.139,91.382,59.951,91.379,59.805c0.03,2.25-0.173,4.511-0.623,6.722c-1.826,9.039-7.697,16.988-15.763,21.445
			c-0.355,0.194-0.714,0.385-1.076,0.563c0.148-0.384,0.293-0.771,0.438-1.166c2.191-1.187,4.222-2.628,6.053-4.289h-4.656
			c0.08-0.272,0.156-0.554,0.234-0.831h5.307c0.643-0.633,1.258-1.289,1.847-1.973h-6.641c0.068-0.277,0.134-0.555,0.197-0.836h7.13
			c0.509-0.637,0.995-1.297,1.455-1.971h-8.154c0.053-0.279,0.108-0.555,0.161-0.834h8.535c0.403-0.641,0.786-1.302,1.143-1.973
			h-9.332c0.044-0.275,0.091-0.553,0.134-0.832h9.623c0.318-0.646,0.615-1.305,0.887-1.975H78.046
			c0.036-0.275,0.07-0.551,0.104-0.83h10.456c0.207-0.561,0.402-1.127,0.579-1.696h-10.85c0.028-0.274,0.055-0.556,0.082-0.832
			H89.43c0.181-0.647,0.34-1.308,0.478-1.972h-11.33c0.02-0.278,0.037-0.555,0.055-0.836h11.439c0.117-0.649,0.209-1.31,0.284-1.974
			H78.737c0.005-0.142,0.013-0.282,0.02-0.428c0.004-0.138,0.008-0.269,0.015-0.404h11.667c0.062-0.743,0.099-1.495,0.109-2.249
			H78.832c0.004-0.285,0.008-0.561,0.011-0.833h11.705c-0.011-0.664-0.038-1.323-0.089-1.975H78.834
			c-0.004-0.284-0.008-0.562-0.013-0.833h11.558c-0.072-0.666-0.164-1.323-0.273-1.974H78.755c-0.013-0.288-0.026-0.568-0.04-0.833
			H89.95c-0.124-0.615-0.267-1.225-0.424-1.827H78.59c-0.026-0.306-0.049-0.583-0.076-0.833h10.779
			c-0.187-0.635-0.392-1.262-0.622-1.879H77.936c-0.43-0.162-1.202-0.461-2.156-0.833h12.573c-0.256-0.638-0.533-1.265-0.826-1.882
			H71.108c-0.691-0.287-1.352-0.57-1.936-0.832h17.937c-0.382-0.737-0.794-1.458-1.234-2.159H65.647
			c-0.556-0.504-0.771-0.824-0.771-0.824s0.008-0.004,0.014-0.009h20.447c-0.496-0.741-1.028-1.459-1.587-2.154H67.9
			c0.273-0.258,0.501-0.539,0.692-0.833h14.466c-0.648-0.753-1.335-1.474-2.051-2.156H69.305c0.011-0.135,0.018-0.271,0.018-0.403
			c0-0.149-0.059-0.294-0.155-0.432h10.927c-0.99-0.876-2.04-1.69-3.14-2.436H64.671l0.108-0.832H75.65
			c-3.135-1.9-6.634-3.252-10.364-3.932l0.104-0.808c4.664,0.853,9.136,2.738,13.006,5.572
			C86.355,40.531,91.242,49.927,91.379,59.805z M56.822,42.289c0.186,0,0.369,0,0.555,0c0.939,2.171,0.9,8.101,0,10.277
			C56.098,50.239,57.181,45.545,56.822,42.289z M49.045,37.844c0.163-0.578,0.584-0.897,0.833-1.389
			c4.078,2.792,11.213,1.724,16.942,1.111c-2.11,2.833-9.045,1.888-13.332,1.667c2.825,1.455,8.838,0.819,12.5,0.556
			C61.104,42.992,52.802,40.602,49.045,37.844z M47.302,46.105c-0.921,0.359-1.836,0.592-2.823,0.826
			c-0.011,0.001-0.019,0.005-0.028,0.006h-12.5c-0.296,0.616-0.571,1.244-0.825,1.882h8.307c-0.062,0.249,0.029,0.508,0.047,0.833
			h-8.675c-0.227,0.617-0.433,1.245-0.621,1.879h9.335c0.007,0.257,0.013,0.535,0.02,0.833h-9.587
			c-0.16,0.603-0.301,1.211-0.422,1.827h10.054c0.008,0.27,0.014,0.547,0.021,0.833h-10.23c-0.11,0.65-0.204,1.308-0.274,1.974
			H39.66c0.01,0.273,0.018,0.551,0.027,0.833h-10.66c-0.052,0.651-0.082,1.311-0.091,1.975H39.75
			c0.009,0.273,0.02,0.552,0.028,0.833H28.933c0.011,0.752,0.047,1.506,0.109,2.25h10.822c0.012,0.275,0.022,0.553,0.034,0.832
			H29.125c0.073,0.663,0.169,1.322,0.287,1.973H39.99c0.012,0.279,0.026,0.558,0.039,0.836H29.573
			c0.137,0.662,0.297,1.32,0.478,1.972h10.083c0.016,0.276,0.031,0.558,0.049,0.832h-9.89c0.178,0.571,0.372,1.14,0.581,1.696h9.417
			c0.021,0.279,0.039,0.555,0.057,0.83h-9.146c0.272,0.67,0.57,1.328,0.887,1.975h8.417c0.026,0.277,0.051,0.555,0.079,0.832h-8.07
			c0.357,0.672,0.738,1.332,1.14,1.973h7.141c0.033,0.276,0.068,0.555,0.104,0.834h-6.701c0.457,0.674,0.942,1.334,1.453,1.971
			h5.527c0.042,0.279,0.085,0.556,0.131,0.836h-4.969c0.586,0.684,1.201,1.341,1.846,1.973h3.461
			c0.051,0.277,0.103,0.555,0.156,0.831h-2.735c1.026,0.931,2.112,1.791,3.257,2.576c0.083,0.391,0.169,0.774,0.254,1.157
			c-4.848-3.153-8.835-7.608-11.364-12.861c-4.266-8.878-4.118-19.49,0.415-28.235c4.228-8.15,11.982-14.2,20.917-16.292
			l0.137,0.824c-3.167,0.746-6.146,1.977-8.857,3.617h8.893c0,0.02-0.004,0.039-0.004,0.06c-0.012,0.333-0.116,0.562-0.315,0.772
			h-9.874c-1.102,0.746-2.149,1.559-3.144,2.436h8.847c-0.166,0.176-0.348,0.167-0.326,0.485c0.007,0.105,0.047,0.228,0.093,0.35
			h-9.523c-0.719,0.682-1.404,1.403-2.051,2.155h14.029c0.406,0.282,0.816,0.556,1.233,0.833H35.729
			c-0.56,0.695-1.091,1.414-1.587,2.155h17.922c-0.259,0.307-0.593,0.589-0.925,0.833H33.601c-0.44,0.701-0.851,1.42-1.233,2.159
			h14.934V46.105z M41.236,99.844c0.051,0.062,0.125,0.131,0.219,0.195l-0.088,0.15l-2.342-1.381l0.087-0.147
			c0.102,0.05,0.194,0.084,0.274,0.094c0.081,0.017,0.146-0.024,0.202-0.114l1.104-1.879l-2.725-1.603l-1.104,1.88
			c-0.055,0.094-0.055,0.167-0.003,0.23c0.052,0.064,0.121,0.129,0.214,0.195l-0.085,0.146l-2.343-1.379l0.085-0.147
			c0.103,0.05,0.194,0.083,0.276,0.097s0.146-0.024,0.2-0.115l2.766-4.702c0.052-0.091,0.052-0.169,0.002-0.229
			c-0.052-0.064-0.125-0.131-0.216-0.195l0.085-0.149l2.343,1.379L40.1,92.316c-0.102-0.049-0.194-0.082-0.276-0.094
			c-0.082-0.014-0.145,0.023-0.199,0.113l-0.917,1.559l2.725,1.603l0.917-1.56c0.055-0.09,0.055-0.168,0.002-0.229
			c-0.051-0.063-0.122-0.13-0.217-0.194l0.087-0.148l2.343,1.378l-0.087,0.147c-0.103-0.048-0.194-0.082-0.274-0.094
			c-0.082-0.018-0.148,0.023-0.2,0.114l-2.765,4.702C41.188,99.703,41.184,99.779,41.236,99.844z M30.659,90.25
			c0.065,0.251,0.176,0.497,0.331,0.734c0.158,0.238,0.332,0.449,0.527,0.632c0.211,0.198,0.428,0.354,0.664,0.475
			c0.235,0.123,0.457,0.214,0.667,0.273c0.209,0.061,0.389,0.09,0.539,0.093c0.148,0.004,0.24-0.016,0.271-0.051l0.09-0.094
			c0.037-0.043,0.064-0.078,0.077-0.104l0.183,0.035l-0.355,2.361l-0.194-0.045c0.009-0.138-0.011-0.228-0.059-0.272
			c-0.028-0.028-0.134-0.065-0.312-0.116c-0.183-0.052-0.41-0.133-0.687-0.242c-0.276-0.106-0.579-0.263-0.905-0.465
			c-0.328-0.199-0.659-0.461-0.991-0.771c-0.383-0.359-0.72-0.75-1.013-1.168c-0.294-0.42-0.497-0.857-0.606-1.312
			c-0.111-0.45-0.113-0.907-0.007-1.372c0.108-0.462,0.365-0.91,0.772-1.344c0.397-0.425,0.825-0.706,1.28-0.844
			c0.457-0.137,0.915-0.165,1.376-0.084c0.462,0.078,0.917,0.246,1.362,0.5c0.446,0.257,0.862,0.562,1.245,0.921
			c0.229,0.218,0.433,0.444,0.614,0.684c0.177,0.242,0.339,0.472,0.48,0.683c0.14,0.211,0.258,0.398,0.356,0.562
			c0.096,0.161,0.173,0.27,0.228,0.316c0.035,0.035,0.074,0.054,0.124,0.062c0.047,0.002,0.085,0.002,0.122-0.008l0.085,0.16
			l-2.186,0.821l-0.079-0.211c0.033-0.021,0.07-0.039,0.105-0.059c0.036-0.018,0.071-0.044,0.104-0.08
			c0.039-0.041,0.041-0.131,0.007-0.27c-0.035-0.137-0.097-0.291-0.191-0.465c-0.094-0.172-0.209-0.354-0.346-0.551
			c-0.138-0.193-0.295-0.373-0.467-0.537c-0.195-0.182-0.416-0.346-0.664-0.486c-0.248-0.137-0.498-0.233-0.751-0.283
			c-0.255-0.048-0.509-0.043-0.76,0.016c-0.252,0.062-0.481,0.201-0.693,0.424c-0.203,0.217-0.327,0.455-0.372,0.713
			C30.589,89.745,30.595,90,30.659,90.25z M26.111,87.898l-0.144,0.098l-1.606-2.402l0.143-0.098
			c0.037,0.059,0.088,0.111,0.152,0.165c0.067,0.055,0.131,0.06,0.193,0.019c0.041-0.027,0.112-0.134,0.216-0.322
			c0.103-0.191,0.21-0.4,0.322-0.629c0.111-0.229,0.218-0.449,0.317-0.66c0.102-0.209,0.168-0.346,0.198-0.4l-0.763-1.141
			l-1.598,1.066c-0.088,0.061-0.125,0.129-0.108,0.203c0.018,0.075,0.048,0.159,0.099,0.253l-0.143,0.095l-1.367-2.047l0.144-0.095
			c0.039,0.041,0.089,0.083,0.149,0.122c0.062,0.039,0.135,0.029,0.223-0.027l4.533-3.031c0.086-0.06,0.125-0.123,0.111-0.193
			c-0.013-0.07-0.036-0.143-0.07-0.208l0.14-0.099l2.554,3.816c0.397,0.594,0.576,1.163,0.532,1.7
			c-0.044,0.539-0.34,0.992-0.888,1.358c-0.428,0.287-0.853,0.39-1.269,0.306c-0.417-0.082-0.825-0.263-1.224-0.549l-0.891,2.129
			c-0.036,0.082-0.053,0.176-0.051,0.282C26.022,87.714,26.053,87.812,26.111,87.898z M19.271,64.083l-2.166,0.258
			c-0.104,0.015-0.167,0.06-0.186,0.14c-0.02,0.08-0.028,0.177-0.024,0.293l-0.169,0.021l-0.327-2.7l0.17-0.019
			c0.024,0.108,0.053,0.202,0.091,0.276c0.037,0.072,0.108,0.101,0.211,0.086l5.415-0.652c0.104-0.016,0.165-0.061,0.187-0.141
			c0.019-0.078,0.027-0.174,0.021-0.289l0.172-0.021l0.326,2.696l-0.171,0.021c-0.022-0.111-0.051-0.205-0.092-0.275
			c-0.036-0.074-0.106-0.103-0.212-0.09l-1.792,0.219l0.378,3.138l1.794-0.217c0.105-0.013,0.167-0.06,0.187-0.14
			c0.02-0.078,0.028-0.177,0.024-0.291l0.171-0.021l0.327,2.697l-0.172,0.021c-0.022-0.111-0.053-0.203-0.091-0.275
			c-0.037-0.07-0.109-0.101-0.212-0.088l-5.416,0.652c-0.103,0.014-0.164,0.061-0.186,0.139c-0.019,0.08-0.027,0.178-0.023,0.291
			l-0.17,0.021l-0.327-2.695l0.171-0.021c0.024,0.11,0.053,0.202,0.091,0.276c0.036,0.072,0.108,0.103,0.213,0.088l2.166-0.262
			L19.271,64.083z M21.562,40.084c0.02,0.011,0.129,0.035,0.328,0.072c0.196,0.04,0.444,0.083,0.733,0.129
			c0.291,0.048,0.607,0.101,0.947,0.156c0.343,0.059,0.668,0.111,0.973,0.162c0.305,0.052,0.58,0.096,0.813,0.135
			c0.236,0.041,0.387,0.072,0.463,0.088l0.018-0.028c-0.229-0.289-0.495-0.626-0.798-1.017c-0.301-0.389-0.59-0.757-0.868-1.11
			c-0.28-0.351-0.521-0.653-0.727-0.911c-0.205-0.256-0.324-0.391-0.35-0.407c-0.076-0.039-0.14-0.021-0.196,0.055
			c-0.056,0.081-0.096,0.143-0.122,0.188l-0.168-0.093l1.306-2.328l0.168,0.096c-0.032,0.08-0.052,0.15-0.057,0.216
			c-0.006,0.064,0.025,0.125,0.088,0.185c0.085,0.085,0.245,0.268,0.477,0.552c0.23,0.284,0.498,0.615,0.797,0.996
			c0.298,0.383,0.614,0.783,0.946,1.203c0.333,0.416,0.639,0.805,0.92,1.166c0.281,0.358,0.519,0.657,0.71,0.892
			c0.192,0.238,0.295,0.36,0.314,0.371c0.077,0.041,0.15,0.041,0.229,0c0.079-0.04,0.132-0.098,0.158-0.17l0.169,0.095l-1.651,2.94
			l-0.167-0.094c0.044-0.06,0.065-0.134,0.06-0.223c-0.005-0.088-0.043-0.151-0.12-0.197c-0.008-0.004-0.172-0.037-0.492-0.1
			c-0.317-0.064-0.714-0.139-1.19-0.229c-0.475-0.088-0.994-0.185-1.553-0.285c-0.561-0.1-1.084-0.19-1.573-0.266
			c-0.486-0.079-0.901-0.143-1.241-0.191c-0.337-0.051-0.528-0.062-0.566-0.036c-0.068,0.038-0.116,0.069-0.139,0.099
			c-0.023,0.03-0.044,0.065-0.065,0.101l-0.167-0.095l1.476-2.633l0.168,0.092c-0.031,0.056-0.067,0.131-0.108,0.225
			C21.471,39.976,21.488,40.044,21.562,40.084z M27.739,31.357l4.631,3.928c0.089,0.076,0.176,0.09,0.257,0.042
			c0.084-0.048,0.182-0.13,0.292-0.246l0.145,0.123L31.02,37.62l-0.146-0.124c0.095-0.129,0.159-0.24,0.194-0.328
			c0.033-0.09,0.007-0.17-0.083-0.247l-4.63-3.929c-0.09-0.075-0.176-0.09-0.258-0.042c-0.083,0.049-0.181,0.129-0.293,0.248
			l-0.146-0.126l2.047-2.415l0.144,0.124c-0.093,0.13-0.158,0.239-0.193,0.327C27.622,31.199,27.647,31.283,27.739,31.357z
			 M32.949,26.429c0.013,0.018,0.149,0.052,0.411,0.1c0.259,0.05,0.589,0.111,0.99,0.177c0.4,0.068,0.848,0.143,1.337,0.225
			c0.493,0.081,0.981,0.161,1.473,0.244l-1.909-2.503c-0.074-0.09-0.152-0.125-0.24-0.098c-0.087,0.028-0.186,0.074-0.292,0.144
			L34.6,24.562l2.234-1.706l0.117,0.151c-0.095,0.085-0.166,0.169-0.215,0.247c-0.047,0.076-0.036,0.163,0.033,0.253l3.689,4.826
			c0.072,0.093,0.15,0.127,0.239,0.1c0.085-0.026,0.184-0.075,0.292-0.143l0.114,0.152l-2.347,1.797l-0.116-0.152
			c0.066-0.051,0.139-0.121,0.214-0.206c0.078-0.085,0.084-0.166,0.028-0.243c-0.06-0.076-0.26-0.145-0.604-0.211
			c-0.346-0.065-0.781-0.14-1.306-0.219c-0.524-0.083-1.112-0.172-1.763-0.271c-0.652-0.096-1.318-0.221-1.997-0.376l-0.007,0.047
			l2.543,3.327c0.07,0.092,0.148,0.127,0.232,0.104c0.083-0.024,0.172-0.066,0.273-0.129l0.116,0.152l-2.171,1.66l-0.116-0.154
			c0.081-0.073,0.139-0.145,0.185-0.22c0.044-0.073,0.028-0.157-0.041-0.25l-3.689-4.825c-0.07-0.093-0.149-0.127-0.237-0.101
			c-0.089,0.027-0.182,0.072-0.28,0.134l-0.116-0.15l3.02-2.312l0.117,0.152c-0.052,0.056-0.098,0.116-0.139,0.188
			C32.865,26.255,32.878,26.337,32.949,26.429z M47.456,17.873l0.177-0.067l0.76,2.001l-0.18,0.068
			c-0.058-0.148-0.124-0.235-0.2-0.258c-0.076-0.022-0.144-0.021-0.204,0l-4.362,1.655l0.458,1.211l2.807-1.065
			c0.06-0.023,0.112-0.066,0.155-0.138c0.042-0.065,0.036-0.169-0.016-0.308l0.179-0.069l0.737,1.943l-0.18,0.068
			c-0.052-0.139-0.118-0.22-0.195-0.243c-0.078-0.024-0.146-0.023-0.206,0l-2.807,1.066l0.559,1.479l4.244-1.609
			c0.198-0.076,0.281-0.248,0.248-0.52l0.18-0.069l0.741,1.957l-0.149,0.057c-0.102-0.12-0.186-0.18-0.248-0.177
			c-0.062,0-0.152,0.024-0.272,0.068l-6.665,2.525l-0.067-0.18c0.105-0.052,0.196-0.108,0.27-0.169
			c0.073-0.062,0.088-0.147,0.046-0.258l-2.151-5.678c-0.042-0.109-0.112-0.162-0.206-0.162c-0.096,0.004-0.201,0.021-0.314,0.052
			l-0.067-0.178l6.783-2.572c0.06-0.024,0.112-0.066,0.156-0.13C47.512,18.113,47.506,18.012,47.456,17.873z M20.311,52.682
			c0.58,0.061,1.061,0.229,1.447,0.507c0.384,0.28,0.686,0.626,0.903,1.042c0.215,0.416,0.36,0.879,0.428,1.389
			c0.066,0.51,0.075,1.027,0.021,1.549c-0.031,0.312-0.089,0.613-0.17,0.903c-0.083,0.292-0.166,0.553-0.25,0.794
			c-0.083,0.24-0.159,0.448-0.231,0.623c-0.069,0.175-0.108,0.303-0.116,0.379c-0.005,0.047,0.005,0.09,0.028,0.132
			c0.026,0.04,0.051,0.072,0.077,0.095l-0.075,0.164l-1.979-1.24l0.121-0.189c0.039,0.014,0.074,0.028,0.112,0.047
			c0.037,0.019,0.079,0.029,0.126,0.036c0.057,0.005,0.129-0.047,0.217-0.159c0.088-0.111,0.172-0.254,0.254-0.433
			c0.082-0.179,0.156-0.383,0.227-0.61c0.074-0.229,0.12-0.462,0.145-0.699c0.028-0.262,0.023-0.539-0.017-0.822
			c-0.04-0.281-0.118-0.538-0.233-0.77c-0.114-0.234-0.273-0.434-0.472-0.596c-0.199-0.164-0.452-0.261-0.757-0.293
			c-0.295-0.03-0.561,0.014-0.794,0.135c-0.232,0.119-0.429,0.28-0.589,0.485c-0.16,0.204-0.288,0.441-0.383,0.71
			c-0.093,0.266-0.154,0.534-0.182,0.801c-0.028,0.284-0.021,0.557,0.026,0.814c0.044,0.258,0.108,0.491,0.187,0.696
			c0.081,0.204,0.164,0.365,0.253,0.485c0.088,0.119,0.155,0.18,0.204,0.187l0.128,0.014c0.057,0.008,0.101,0.005,0.13-0.001
			l0.083,0.166l-2.092,1.153l-0.083-0.183c0.115-0.073,0.173-0.146,0.181-0.211c0.005-0.038-0.027-0.145-0.097-0.319
			c-0.069-0.175-0.143-0.405-0.224-0.692c-0.082-0.287-0.139-0.621-0.179-1.004c-0.036-0.384-0.032-0.8,0.016-1.256
			c0.052-0.521,0.155-1.027,0.311-1.515c0.156-0.488,0.379-0.911,0.673-1.276c0.292-0.362,0.653-0.643,1.087-0.836
			C19.205,52.689,19.719,52.62,20.311,52.682z M19.088,73.23c0.145-0.332,0.36-0.61,0.637-0.836
			c0.278-0.228,0.598-0.408,0.955-0.541l2.958-1.106c0.098-0.035,0.146-0.097,0.144-0.185c-0.001-0.084-0.016-0.186-0.048-0.297
			l0.161-0.061l0.904,2.412l-0.161,0.062c-0.027-0.043-0.063-0.084-0.108-0.129c-0.048-0.044-0.122-0.048-0.22-0.01l-3.266,1.225
			c-0.34,0.127-0.537,0.34-0.594,0.641c-0.056,0.302-0.008,0.652,0.14,1.055c0.151,0.403,0.347,0.699,0.585,0.891
			c0.242,0.19,0.53,0.223,0.871,0.094l3.264-1.223c0.1-0.037,0.151-0.09,0.159-0.152c0.006-0.062,0.006-0.119-0.003-0.168
			l0.164-0.06l0.9,2.41l-0.159,0.06c-0.051-0.102-0.102-0.185-0.156-0.25c-0.056-0.066-0.133-0.08-0.233-0.043l-2.957,1.104
			c-0.358,0.134-0.715,0.208-1.075,0.219c-0.359,0.013-0.702-0.059-1.028-0.21c-0.327-0.152-0.632-0.406-0.914-0.758
			c-0.282-0.352-0.531-0.823-0.75-1.414c-0.221-0.589-0.342-1.109-0.362-1.562C18.877,73.949,18.94,73.562,19.088,73.23z
			 M67.1,3.673c-0.846,7.168-2.088,16.603-3.057,25.836c-0.291,2.785-0.274,6.762-1.665,7.78c-1.847,1.353-6.088,0.306-8.054-0.834
			c-0.386-11.65-2.739-22.817-4.167-32.502C53.461,0.339,63.315,0.925,67.1,3.673z M9.664,60.251
			c0-24.116,17.125-44.304,39.851-49.039l0.115,0.695c-22.393,4.681-39.263,24.575-39.263,48.344
			c0,24.452,17.866,44.806,41.226,48.702c0.193,0.273,0.387,0.544,0.583,0.809C28.141,106.104,9.664,85.294,9.664,60.251z
			 M40.991,50.066c3.854-1.144,7.088-2.91,11.11-3.888c1.667,3.608,1.538,9.017,4.444,11.39c2.543,0.229,4.303-0.328,4.999-1.944
			c-0.398-0.805-1.262-1.146-2.222-1.39c0.661-3.783-0.59-9.481,1.11-12.224c1.838,1.588-0.456,6.136,0.556,8.612
			c1.375-1.31,0.522-4.85,3.61-4.444c1,6.9-0.075,15.136-7.5,13.612c-0.592,0.613,1.619,0.772,1.389,1.942
			c-0.654-0.004-0.817,0.479-1.666,0.276c0.742,0.649,1.824,0.958,2.5,1.668c-0.294,0.728-1.129,0.91-2.223,0.834
			c0.004,1.388,2.029,0.75,1.945,2.224c-0.631,0.479-1.551,0.67-2.778,0.555c0.841,1.291,2.695,1.564,3.333,3.055
			c-1.324-0.027-2.076,0.522-3.055,0.836c0.504,1.069,2.314,0.831,2.5,2.223c-0.353,0.666-2.19-0.152-2.5,0.556
			c0.183,1.3,2.26,0.699,2.777,1.667c-0.122,1.27-1.45,1.327-2.5,1.667c0.65,0.828,1.782,1.181,2.777,1.666
			c-0.755,0.728-1.973,0.99-3.055,1.39c0.466,1.109,2.428,0.719,2.5,2.223c-0.404,0.431-1.42,0.246-2.222,0.277
			c0.126,1.543,2.096,1.238,2.222,2.777c-0.595,0.516-2.034,0.188-3.055,0.277c0.683,1.357,2.981,1.093,3.333,2.777
			c-0.982,0.129-1.605,0.621-2.777,0.56c0.261,1.403,2.33,1,3.055,1.94c-0.396,0.902-1.346,1.25-2.777,1.116
			c0.201,1.185,1.559,1.215,2.222,1.94c-0.42,0.693-1.874,0.349-2.5,0.836c0.548,1.117,1.814,1.516,2.777,2.221
			c-0.475,0.637-2.121,0.102-3.056,0.279c0.387,1.371,1.867,1.648,2.778,2.5c-0.818,0.477-2.003,0.59-3.333,0.557
			c-0.646,1.305,2.107,1.331,2.222,2.779c-7.071-0.525-8.324-6.866-11.11-11.672c1.025,7.772,5.99,14.013,10.831,18.893
			c2.748-2.438,5.135-5.236,7.501-8.057c-1.59,3.316-5.548,6.674-7.779,10.277C44.088,99.753,40.988,76.464,40.991,50.066z
			 M60.912,110.314c0.182-0.233,0.366-0.476,0.555-0.722c26.425-0.913,47.642-22.694,47.642-49.343
			c0-24.533-17.976-44.941-41.445-48.747l0.091-0.696c23.812,3.849,42.057,24.553,42.057,49.444
			C109.812,87.473,87.982,109.689,60.912,110.314z"/>
		<path fill="#1A4256" d="M49.323,48.401c-2.011,0.955-4.201,1.724-6.389,2.501c-0.44,8.27-0.723,18.399,1.111,25.28
			C44.255,65.624,43.264,52.715,49.323,48.401z"/>
		<polygon fill="#1A4256" points="83.769,94.163 85.65,92.715 83.165,91.461 		"/>
	</g>
</g>
</svg>
